<?xml version="1.0" encoding="iso-8859-1"?>
<!-- Uploaded to: SVG Repo, www.svgrepo.com, Generator: SVG Repo Mixer Tools -->
<svg fill="#000000" height="800px" width="800px" version="1.1" id="Layer_1" xmlns="http://www.w3.org/2000/svg" xmlns:xlink="http://www.w3.org/1999/xlink" 
	 viewBox="0 0 512 512" xml:space="preserve">
<g transform="translate(1 1)">
	<g>
		<path d="M470.893,208.067c-22.187-1.707-40.107-11.947-50.347-28.16l-2.56-4.267c-12.8-21.333-34.987-34.133-60.587-35.84H220.867
			c-0.853,0-1.707,0-2.56,0.853c-12.8,4.267-23.893,14.507-32.427,24.747l-11.947,11.947c-10.041,11.2-21.66,20.645-34.452,28.032
			L47.64,116.76c-3.413-3.413-8.533-3.413-11.947,0s-3.413,8.533,0,11.947l87.69,84.613c-11.006,4.556-22.667,7.7-34.783,9.253
			L36.547,229.4C15.213,232.813-1,250.733-1,272.067v38.4c0,23.893,18.773,42.667,42.667,42.667H76.53
			C80.625,377.267,101.747,395.8,127,395.8s46.375-18.533,50.47-42.667h172.127c4.095,24.134,25.217,42.667,50.47,42.667
			c25.253,0,46.375-18.533,50.47-42.667h17.797c23.893,0,42.667-18.773,42.667-42.667v-59.733
			C511,228.547,493.08,209.773,470.893,208.067z M127,378.733c-18.773,0-34.133-15.36-34.133-34.133
			c0-18.773,15.36-34.133,34.133-34.133c18.773,0,34.133,15.36,34.133,34.133C161.133,363.373,145.773,378.733,127,378.733z
			 M400.067,378.733c-18.773,0-34.133-15.36-34.133-34.133c0-18.773,15.36-34.133,34.133-34.133
			c18.773,0,34.133,15.36,34.133,34.133C434.2,363.373,418.84,378.733,400.067,378.733z M493.933,310.467
			c0,14.507-11.093,25.6-25.6,25.6h-17.797c-2.881-16.98-14.192-31.177-29.444-38.106c-0.338-0.155-0.674-0.314-1.017-0.462
			c-0.214-0.092-0.432-0.175-0.648-0.264c-0.553-0.229-1.109-0.453-1.672-0.662c-0.152-0.056-0.306-0.108-0.459-0.163
			c-0.625-0.226-1.256-0.442-1.893-0.644c-0.138-0.044-0.276-0.085-0.415-0.127c-0.648-0.199-1.302-0.387-1.962-0.56
			c-0.146-0.038-0.292-0.076-0.439-0.113c-0.648-0.164-1.301-0.316-1.96-0.455c-0.166-0.035-0.331-0.071-0.497-0.104
			c-0.636-0.128-1.277-0.242-1.922-0.346c-0.191-0.031-0.381-0.064-0.573-0.093c-0.621-0.093-1.248-0.17-1.877-0.24
			c-0.213-0.024-0.425-0.052-0.639-0.074c-0.629-0.062-1.263-0.107-1.899-0.146c-0.21-0.013-0.417-0.033-0.628-0.043
			c-0.837-0.041-1.68-0.065-2.529-0.065c-0.849,0-1.692,0.024-2.529,0.065c-0.21,0.01-0.418,0.03-0.628,0.043
			c-0.636,0.039-1.27,0.084-1.899,0.146c-0.214,0.021-0.426,0.05-0.639,0.074c-0.629,0.07-1.256,0.148-1.877,0.24
			c-0.192,0.029-0.382,0.062-0.574,0.093c-0.645,0.104-1.285,0.218-1.921,0.345c-0.167,0.034-0.332,0.069-0.498,0.104
			c-0.658,0.139-1.311,0.291-1.959,0.455c-0.146,0.037-0.293,0.074-0.439,0.113c-0.66,0.174-1.314,0.361-1.962,0.561
			c-0.138,0.042-0.276,0.083-0.414,0.127c-0.638,0.202-1.268,0.418-1.894,0.644c-0.152,0.055-0.305,0.107-0.457,0.163
			c-0.564,0.21-1.121,0.434-1.675,0.664c-0.215,0.089-0.432,0.172-0.645,0.263c-0.343,0.148-0.68,0.308-1.019,0.463
			c-15.25,6.93-26.561,21.126-29.441,38.105H177.47c-2.881-16.979-14.19-31.174-29.439-38.104c-0.34-0.156-0.677-0.316-1.021-0.464
			c-0.213-0.091-0.43-0.174-0.645-0.263c-0.554-0.229-1.111-0.453-1.675-0.664c-0.151-0.056-0.305-0.108-0.457-0.163
			c-0.626-0.226-1.257-0.442-1.894-0.644c-0.137-0.043-0.276-0.084-0.414-0.127c-0.648-0.199-1.302-0.387-1.962-0.561
			c-0.146-0.038-0.292-0.076-0.439-0.113c-0.648-0.164-1.301-0.316-1.96-0.455c-0.166-0.035-0.331-0.071-0.497-0.104
			c-0.636-0.128-1.277-0.242-1.922-0.346c-0.191-0.031-0.381-0.064-0.573-0.093c-0.621-0.093-1.248-0.17-1.877-0.24
			c-0.213-0.024-0.425-0.052-0.639-0.074c-0.629-0.062-1.263-0.107-1.899-0.146c-0.21-0.013-0.417-0.033-0.628-0.043
			c-0.837-0.041-1.68-0.065-2.529-0.065c-0.849,0-1.692,0.024-2.529,0.065c-0.21,0.01-0.418,0.03-0.628,0.043
			c-0.636,0.039-1.27,0.084-1.899,0.146c-0.214,0.021-0.426,0.05-0.639,0.074c-0.629,0.07-1.256,0.148-1.877,0.24
			c-0.192,0.029-0.382,0.062-0.573,0.093c-0.645,0.104-1.286,0.218-1.922,0.346c-0.166,0.033-0.332,0.069-0.497,0.104
			c-0.659,0.139-1.312,0.291-1.96,0.455c-0.146,0.037-0.293,0.074-0.439,0.113c-0.66,0.174-1.313,0.361-1.962,0.56
			c-0.138,0.042-0.277,0.083-0.415,0.127c-0.637,0.202-1.267,0.418-1.893,0.644c-0.153,0.055-0.307,0.107-0.459,0.163
			c-0.563,0.21-1.119,0.433-1.672,0.662c-0.216,0.089-0.434,0.172-0.648,0.264c-0.342,0.148-0.678,0.307-1.017,0.462
			c-15.252,6.929-26.563,21.126-29.444,38.106H41.667c-14.507,0-25.6-11.093-25.6-25.6v-38.4c0-12.8,9.387-23.893,22.187-24.747
			l52.053-6.827c37.547-4.267,71.68-22.187,96.427-50.347l11.947-13.653c6.827-7.68,15.36-16.213,23.893-19.627l133.973-0.853
			c19.627,0.853,36.693,11.947,46.933,28.16l2.56,4.267c12.8,21.333,36.693,34.987,64,36.693
			c13.653,0.853,23.893,11.947,23.893,25.6V310.467z"/>
	</g>
</g>
</svg>