<?xml version="1.0" ?>
<!-- Uploaded to: SVG Repo, www.svgrepo.com, Generator: SVG Repo Mixer Tools -->
<svg fill="#000000" width="800px" height="800px" viewBox="0 0 64 64" id="Layer_1_1_" version="1.1" xml:space="preserve" xmlns="http://www.w3.org/2000/svg" xmlns:xlink="http://www.w3.org/1999/xlink">
<g>
<path d="M32,1C14.906,1,1,14.907,1,32s13.906,31,31,31s31-13.907,31-31S49.094,1,32,1z M32,61C16.01,61,3,47.991,3,32S16.01,3,32,3   s29,13.009,29,29S47.99,61,32,61z"/>
<path d="M25.384,40h13.232l2.331-10.038C40.981,29.77,41,29.57,41,29.369C41,27.511,39.488,26,37.631,26H26.369   C24.512,26,23,27.511,23,29.369c0,0.201,0.019,0.401,0.063,0.641L25.384,40z M26.369,28h11.262C38.386,28,39,28.614,39,29.369   c0,0.08-0.007,0.16-0.011,0.189L37.028,38H26.972l-1.95-8.394C25.007,29.529,25,29.449,25,29.369C25,28.614,25.614,28,26.369,28z"/>
<path d="M51,29h-2c-1.103,0-2,0.897-2,2v2c0,1.103,0.897,2,2,2h2c1.103,0,2-0.897,2-2v-2C53,29.897,52.103,29,51,29z M49,33v-2h2   l0.001,2H49z"/>
<rect height="2" width="2" x="13" y="29"/>
<rect height="2" width="2" x="13" y="33"/>
<rect height="2" width="2" x="15" y="31"/>
<rect height="2" width="2" x="11" y="31"/>
<path d="M32,36c1.654,0,3-1.346,3-3s-1.346-3-3-3s-3,1.346-3,3S30.346,36,32,36z M32,32c0.552,0,1,0.449,1,1s-0.448,1-1,1   s-1-0.449-1-1S31.448,32,32,32z"/>
<path d="M32,7c-6.292,0-12.306,2.349-16.934,6.613l1.355,1.471C20.679,11.161,26.211,9,32,9c10.242,0,18.939,6.731,21.907,16   H43.551c-1.344-1.816-3.494-3-5.921-3H26.369c-2.427,0-4.577,1.184-5.921,3H10.11c1.009-3.157,2.68-6.089,4.973-8.578l-1.471-1.355   C9.349,19.695,7,25.708,7,32c0,13.785,11.215,25,25,25c6.292,0,12.306-2.349,16.934-6.613l-1.355-1.471   c-2.96,2.727-6.542,4.579-10.392,5.469l0.425-3.821C38.343,43.972,43.897,39,50.53,39h3.36c-1.009,3.157-2.68,6.089-4.973,8.578   l1.471,1.355C54.651,44.305,57,38.292,57,32C57,18.215,45.785,7,32,7z M26.369,24h11.262C40.592,24,43,26.409,43,29.369   c0,0.355-0.035,0.708-0.098,1.023l-2.157,9.287C40.428,41.045,39.226,42,37.822,42H26.178c-1.403,0-2.605-0.955-2.923-2.321   l-2.15-9.258C21.035,30.078,21,29.724,21,29.369C21,26.409,23.408,24,26.369,24z M19.398,27C19.144,27.745,19,28.54,19,29.369   c0,0.487,0.049,0.974,0.15,1.476l1.91,8.224C18.826,37.756,16.232,37,13.47,37H9.554C9.195,35.389,9,33.717,9,32   c0-1.699,0.208-3.371,0.57-5H19.398z M10.093,39h3.377c6.633,0,12.188,4.972,12.92,11.564l0.427,3.839   C18.905,52.574,12.545,46.656,10.093,39z M35.622,50.344l-0.491,4.419C34.098,54.904,33.056,55,32,55   c-1.062,0-2.105-0.078-3.129-0.218l-0.493-4.438c-0.259-2.328-1.044-4.478-2.221-6.346c0.007,0,0.014,0.002,0.021,0.002h11.645   c0.007,0,0.014-0.002,0.021-0.002C36.666,45.865,35.881,48.015,35.622,50.344z M50.53,37c-2.762,0-5.356,0.756-7.591,2.068   l1.917-8.252C44.951,30.343,45,29.856,45,29.369c0-0.83-0.144-1.624-0.398-2.369h9.844C54.805,28.611,55,30.283,55,32   c0,1.699-0.208,3.371-0.57,5H50.53z"/>
</g>
</svg>