<?xml version="1.0" encoding="iso-8859-1"?>
<!-- Uploaded to: SVG Repo, www.svgrepo.com, Generator: SVG Repo Mixer Tools -->
<svg fill="#000000" height="800px" width="800px" version="1.1" id="Layer_1" xmlns="http://www.w3.org/2000/svg" xmlns:xlink="http://www.w3.org/1999/xlink" 
	 viewBox="0 0 512 512" xml:space="preserve">
<g>
	<g>
		<g>
			<path d="M366.235,0h-220.47c-3.626,0-6.567,2.941-6.567,6.567v498.867c0,3.626,2.941,6.567,6.567,6.567h220.47
				c3.626,0,6.567-2.941,6.567-6.567V6.567C372.802,2.941,369.862,0,366.235,0z M359.668,498.867H152.332V13.133h207.337V498.867z"
				/>
			<path d="M169.992,487.773h172.015c3.626,0,6.567-2.941,6.567-6.567V30.794c0-3.626-2.941-6.567-6.567-6.567H169.992
				c-3.627,0-6.567,2.941-6.567,6.567v450.413C163.426,484.833,166.366,487.773,169.992,487.773z M335.441,474.64H189.162
				l146.279-85.272V474.64z M176.559,37.361h158.882v52.252L176.559,182.23V37.361z M176.559,197.432l158.882-92.618v24.198
				L176.559,221.63V197.432z M176.559,236.832l158.882-92.618v229.952l-158.882,92.618V236.832z"/>
		</g>
	</g>
</g>
</svg>