<?xml version="1.0" ?>
<!-- Uploaded to: SVG Repo, www.svgrepo.com, Generator: SVG Repo Mixer Tools -->
<svg fill="#000000" width="800px" height="800px" viewBox="0 0 64 64" id="Layer_1_1_" version="1.1" xml:space="preserve" xmlns="http://www.w3.org/2000/svg" xmlns:xlink="http://www.w3.org/1999/xlink">
<g>
<path d="M62,16c-4.962,0-9,4.038-9,9v1h-4.021c-0.226-6.102-5.247-11-11.403-11H18.293c-4.254,0-8.128,2.339-10.109,6.104   L2.315,32.255C1.455,33.889,1,35.729,1,37.576C1,43.875,6.125,49,12.424,49h25.151c6.156,0,11.177-4.898,11.403-11H53v1   c0,4.963,4.038,9,9,9h1V16H62z M47,37.576C47,42.772,42.772,47,37.576,47H12.424C7.228,47,3,42.772,3,37.576   c0-1.523,0.375-3.042,1.084-4.39l5.869-11.151c1.635-3.106,4.83-5.035,8.34-5.035h19.282C42.772,17,47,21.228,47,26.424V37.576z    M49,36v-8h4v8H49z M61,45.929c-3.388-0.486-6-3.408-6-6.929V25c0-3.521,2.612-6.442,6-6.929V45.929z"/>
<rect height="2" width="2" x="57" y="22"/>
<rect height="12" width="2" x="57" y="26"/>
<rect height="2" width="2" x="57" y="40"/>
<rect height="2" transform="matrix(0.7071 -0.7071 0.7071 0.7071 -13.2548 32)" width="19.799" x="22.101" y="31"/>
<rect height="2" transform="matrix(0.7129 -0.7012 0.7012 0.7129 -16.0907 24.6937)" width="19.963" x="12.134" y="31"/>
<path d="M37.576,19H19v2h18.576C40.567,21,43,23.433,43,26.424v11.152C43,40.566,40.567,43,37.576,43H33v2h4.576   C41.67,45,45,41.67,45,37.576V26.424C45,22.33,41.67,19,37.576,19z"/>
<path d="M7,37.576c0-0.876,0.216-1.751,0.624-2.528l5.869-11.149c0.76-1.443,2.12-2.456,3.731-2.778l-0.393-1.961   c-2.205,0.441-4.067,1.829-5.108,3.808l-5.87,11.15C5.295,35.182,5,36.378,5,37.576C5,41.67,8.33,45,12.424,45H31v-2H12.424   C9.433,43,7,40.566,7,37.576z"/>
</g>
</svg>