<?xml version="1.0" encoding="iso-8859-1"?>
<!-- Uploaded to: SVG Repo, www.svgrepo.com, Generator: SVG Repo Mixer Tools -->
<svg fill="#000000" height="800px" width="800px" version="1.1" id="Layer_1" xmlns="http://www.w3.org/2000/svg" xmlns:xlink="http://www.w3.org/1999/xlink" 
	 viewBox="0 0 512 512" xml:space="preserve">
<g transform="translate(1 1)">
	<g>
		<g>
			<path d="M502.467,63H135.533c-7.68,0-15.36,3.413-20.48,9.387L6.68,187.587c-5.12,5.12-7.68,12.8-7.68,19.627v69.12v162.133
				c0,5.12,3.413,8.533,8.533,8.533h494.933c5.12,0,8.533-3.413,8.533-8.533V276.333v-0.853v-93.867V71.533
				C511,66.413,507.587,63,502.467,63z M493.933,267.8H91.16l68.267-73.387c2.56-1.707,5.12-3.413,8.533-3.413h325.973V267.8z
				 M16.067,207.213c0-2.56,0.853-5.12,3.413-7.68L127,83.48c2.56-1.707,5.12-3.413,8.533-3.413h358.4v93.013H167.96
				c-7.68,0-15.36,3.413-20.48,9.387L67.946,267.8H16.067V207.213z M493.933,429.933H16.067V284.867h55.467h422.4V429.933z"/>
			<path d="M247.566,400.313c1.395,2.509,4.034,4.02,7.434,4.02s6.038-1.511,7.434-4.02l24.14-24.14
				c3.413-3.413,3.413-8.533,0-11.947c-3.413-3.413-8.533-3.413-11.947,0l-11.093,11.093V319c0-5.12-3.413-8.533-8.533-8.533
				s-8.533,3.413-8.533,8.533v56.32l-11.093-11.093c-3.413-3.413-8.533-3.413-11.947,0c-3.413,3.413-3.413,8.533,0,11.947
				L247.566,400.313z"/>
		</g>
	</g>
</g>
</svg>